<svg id="Layer_1" data-name="Layer 1" xmlns="http://www.w3.org/2000/svg" viewBox="0 0 148.17 76.5"><defs><style>.cls-1{fill:#233a77;}.cls-2{fill:#bac2c9;}</style></defs><title>Artboard 1 copy</title><polygon class="cls-1" points="64.56 32.99 64.56 21.97 61.48 13.8 60.91 13.39 60.91 13.39 60.91 13.39 60.34 13.8 57.26 21.97 57.26 32.99 38.76 45.32 38.76 51.45 48.71 47.57 57.26 47.57 58.52 62.21 51.16 65.86 51.16 69.53 59.72 67.09 60.91 71.98 60.91 71.98 60.91 71.98 62.11 67.09 70.67 69.53 70.67 65.86 63.3 62.21 64.56 47.57 73.11 47.57 83.06 51.45 83.06 45.32 64.56 32.99"/><polygon class="cls-2" points="118.62 27.09 118.62 14.41 115.08 5 114.42 4.52 114.42 4.52 114.42 4.52 113.76 5 110.22 14.41 110.22 27.09 85.86 44.81 85.86 51.87 100.37 43.87 110.22 42 111.81 60.73 103.19 64.93 103.19 69.16 113.58 66.35 114.42 71.98 114.42 71.98 114.42 71.98 115.25 66.35 125.65 69.16 125.65 64.93 117.03 60.73 118.62 42 128.46 43.87 142.97 51.87 142.97 44.81 118.62 27.09"/><polygon class="cls-2" points="24.9 45.48 24.9 31.97 22.43 25.44 21.98 25.1 21.98 25.1 21.98 25.1 21.52 25.44 19.06 31.97 19.06 45.48 5.19 57.68 5.19 62.59 16.91 57.14 19.06 57.14 20.81 64.16 14.17 67.08 14.17 70.02 21.39 68.07 21.98 71.98 21.98 71.98 21.98 71.98 22.56 68.07 29.78 70.02 29.78 67.08 23.14 64.16 24.9 57.14 27.05 57.14 38.76 62.59 38.76 57.68 24.9 45.48"/></svg>